<svg xmlns="http://www.w3.org/2000/svg" version="1.1" xmlns:xlink="http://www.w3.org/1999/xlink" xmlns:svgjs="http://svgjs.dev/svgjs" width="2000" height="595" viewBox="0 0 2000 595"><g transform="matrix(1,0,0,1,-1.2121212121212466,-0.9838222941392587)"><svg viewBox="0 0 396 118" data-background-color="#121212" preserveAspectRatio="xMidYMid meet" height="595" width="2000" xmlns="http://www.w3.org/2000/svg" xmlns:xlink="http://www.w3.org/1999/xlink"><g id="tight-bounds" transform="matrix(1,0,0,1,0.2400000000000091,0.1951109759805547)"><svg viewBox="0 0 395.52 117.60977804803889" height="117.60977804803889" width="395.52"><g><svg viewBox="0 0 395.52 117.60977804803889" height="117.60977804803889" width="395.52"><g><svg viewBox="0 0 395.52 117.60977804803889" height="117.60977804803889" width="395.52"><g id="textblocktransform"><svg viewBox="0 0 395.52 117.60977804803889" height="117.60977804803889" width="395.52" id="textblock"><g><svg viewBox="0 0 395.52 117.60977804803889" height="117.60977804803889" width="395.52"><g transform="matrix(1,0,0,1,0,0)"><svg width="395.52" viewBox="1.05 -37.9 164.42999999999998 48.9" height="117.60977804803889" data-palette-color="#6049fc"><path d="M13.55-1.8L1.05-12.6 13.4-23.75 16.35-20.4 8.15-12.8 16.75-5.35 13.55-1.8ZM41.85-34.5L41.3-29.15 30.65-29.15 30.35-19.95 39.9-19.95 39.35-14.65 30.2-14.65 30.15-13 30.75 0 23.75 0 24.35-12.15 23.75-34.5 41.85-34.5ZM49.74 0Q46.8 0 44.92-1.88 43.05-3.75 43.05-6.93 43.05-10.1 45.95-12.43 48.84-14.75 52.99-14.75L52.99-14.75 56.39-14.75 56.39-15.6Q56.39-18.05 55.39-18.95 54.39-19.85 51.64-19.85L51.64-19.85Q50.49-19.85 48.92-19.38 47.34-18.9 45.39-17.9L45.39-17.9 43.95-21.85Q46.09-23.35 49.17-24.55 52.24-25.75 54.24-25.75L54.24-25.75Q62.09-25.75 62.09-18.15L62.09-18.15 62.09-8.35Q62.09-5.55 63.84-2.1L63.84-2.1 58.55 0.15Q57.3-2.25 56.7-4.15L56.7-4.15Q53.95 0 49.74 0L49.74 0ZM51.84-5.1L51.84-5.1Q53.84-5.1 56.39-7.15L56.39-7.15 56.39-10.5Q53.74-11.1 52.09-11.1L52.09-11.1Q48.95-11.1 48.95-8.3L48.95-8.3Q48.95-6.85 49.74-5.98 50.55-5.1 51.84-5.1ZM75.34 11L68.89 9.65 74.04-1.9 70.34-12 65.29-24.15 71.94-25.4 75.14-14.75 76.79-9.7 77.44-9.7 78.64-13.35 82.24-25.45 88.39-24.7 79.54-1.45 75.34 11ZM100.44-5.1L100.44-5.1Q101.89-5.1 103.49-5.85 105.09-6.6 105.99-7.35L105.99-7.35 106.89-8.1 109.19-5.3Q108.69-4.45 107.64-3.35 106.59-2.25 105.52-1.48 104.44-0.7 102.67-0.08 100.89 0.55 98.99 0.55L98.99 0.55Q94.94 0.55 92.39-2.53 89.84-5.6 89.84-10.45L89.84-10.45Q89.84-16.55 93.39-21.15 96.94-25.75 101.69-25.75L101.69-25.75Q105.34-25.75 107.37-23.7 109.39-21.65 109.39-17.95L109.39-17.95Q109.39-15.75 108.64-12.95L108.64-12.95 107.64-11.9 95.14-10.75Q95.99-5.1 100.44-5.1ZM100.44-20.6L100.44-20.6Q98.24-20.6 96.74-18.82 95.24-17.05 94.99-14.3L94.99-14.3 103.49-15.35Q103.64-16.5 103.64-17.25L103.64-17.25Q103.64-20.6 100.44-20.6ZM112.04 0.3L112.89-4.95 123.44-20 112.39-19.25 113.54-25.55 122.09-25 130.44-25.6 129.59-20.4 118.99-5.3 131.14-6 130.04 0.3 121.54-0.25 112.04 0.3ZM147.49-37.1L136.63 6.65 132.13 5.85 142.99-37.9 147.49-37.1ZM152.98-23.75L165.48-12.95 153.13-1.8 150.18-5.15 158.38-12.75 149.78-20.2 152.98-23.75Z" opacity="1" transform="matrix(1,0,0,1,0,0)" fill="#6049fc" class="wordmark-text-0" data-fill-palette-color="primary" id="text-0"></path></svg></g></svg></g></svg></g></svg></g><g></g></svg></g><defs></defs></svg><rect width="395.52" height="117.60977804803889" fill="none" stroke="none" visibility="hidden"></rect></g></svg></g></svg>